<?xml version="1.0" encoding="utf-8"?>
<!-- Generator: Adobe Illustrator 22.1.0, SVG Export Plug-In . SVG Version: 6.00 Build 0)  -->
<svg version="1.1" id="Layer_1" xmlns="http://www.w3.org/2000/svg" xmlns:xlink="http://www.w3.org/1999/xlink" x="0px" y="0px"
	 viewBox="0 0 128.7 51.5" style="enable-background:new 0 0 128.7 51.5;" xml:space="preserve">
<style type="text/css">
	.st0{fill:#FFFFFF;}
</style>
<g>
	<polygon class="st0" points="65.1,26.1 65.1,23.7 59.4,23.7 59.4,10.4 56.5,10.4 56.5,26.1 	"/>
	<polygon class="st0" points="69.8,26.1 69.8,10.4 66.9,10.4 66.9,26.1 	"/>
	<path class="st0" d="M87.2,26.1V10.4h-2.9v8.8c0,0.7,0,1.6,0,2.3l0,0c-0.4-0.6-0.8-1.2-1.6-2.2l-6.9-8.9h-2.9v15.7h2.9v-9.3
		c0-0.7,0-1.6-0.1-2.1l0,0c0.4,0.7,0.9,1.3,1.6,2.2l7.1,9.2H87.2L87.2,26.1z"/>
	<path class="st0" d="M103.9,18.1c0-4.6-3-7.7-8.7-7.7h-4.8v15.7H95C100.5,26.1,103.9,22.8,103.9,18.1L103.9,18.1z M100.8,18.2
		c0,2.9-1.6,5.5-5.7,5.5h-1.8V12.8h1.8C98.9,12.8,100.8,15,100.8,18.2L100.8,18.2z"/>
	<path class="st0" d="M118.4,26.1l-6.3-15.8H110l-6.1,15.8h2.8l1.5-3.9h5.6l1.6,3.9H118.4L118.4,26.1z M112.8,19.8H109l1.4-3.7
		c0.3-0.7,0.5-1.4,0.6-1.9l0,0c0.1,0.5,0.3,1.2,0.6,2L112.8,19.8L112.8,19.8z"/>
	<polygon class="st0" points="128.7,26.1 128.7,23.7 123,23.7 123,10.4 120.1,10.4 120.1,26.1 	"/>
	<path class="st0" d="M62.6,35.2v-2.9h-1.2v2.3c-0.2,0.1-0.6,0.2-1.1,0.2c-1.5,0-2.4-1.1-2.4-2.5c0-1.3,0.8-2.4,2.5-2.4
		c0.7,0,1.3,0.2,1.9,0.5v-1.2c-0.5-0.2-1.1-0.3-2-0.3c-2.3,0-3.8,1.5-3.8,3.5c0,1.9,1.3,3.4,3.4,3.4C61.1,35.8,62,35.5,62.6,35.2
		L62.6,35.2z"/>
	<path class="st0" d="M68.9,35.7c-1-1.7-1.7-2.9-2-3.1l0,0c0.6-0.3,1.3-0.9,1.3-1.8c0-1-0.7-1.9-2.4-1.9H64v6.8h1.2V33h0.6
		c0.3,0.1,0.7,0.9,1.8,2.7H68.9L68.9,35.7z M66.9,31c0,0.6-0.5,1.1-1.1,1.1h-0.6V30h0.6C66.5,30,66.9,30.5,66.9,31L66.9,31z"/>
	<path class="st0" d="M76.3,32.4c0-0.9-0.3-1.8-0.9-2.4c-0.6-0.7-1.5-1.1-2.6-1.1c-1,0-1.9,0.4-2.5,1s-1,1.5-1,2.5
		c0,1.1,0.4,2,1.1,2.6c0.6,0.5,1.4,0.8,2.4,0.8s1.9-0.4,2.5-1C75.9,34.3,76.3,33.4,76.3,32.4L76.3,32.4z M74.9,32.4
		c0,1.5-0.9,2.4-2.1,2.4c-1.3,0-2.2-0.9-2.2-2.4s0.9-2.4,2.2-2.4C74.1,29.9,74.9,30.9,74.9,32.4L74.9,32.4z"/>
	<path class="st0" d="M83,33.2V29h-1.2v4.3c0,0.5-0.1,0.8-0.4,1.1s-0.7,0.4-1.2,0.4s-0.9-0.1-1.2-0.4c-0.3-0.3-0.4-0.7-0.4-1.2V29
		h-1.2v4.3c0,0.7,0.2,1.5,0.7,1.9s1.2,0.7,2.1,0.7c1,0,1.7-0.3,2.2-0.8C82.8,34.6,83,34,83,33.2L83,33.2z"/>
	<path class="st0" d="M88.5,31.1c0-1.4-1-2.2-2.4-2.2h-1.7v6.8h1.2v-2.4h0.3C87.9,33.4,88.5,32.1,88.5,31.1L88.5,31.1z M87.3,31.2
		c0,0.7-0.4,1.2-1.3,1.2h-0.4V30H86C86.9,30,87.3,30.5,87.3,31.2L87.3,31.2z"/>
	<g>
		<path class="st0" d="M25.7,0c14.2,0,25.7,11.5,25.7,25.7S39.9,51.5,25.7,51.5S0,40,0,25.7C-0.1,11.5,11.4,0,25.7,0L25.7,0z
			 M25.7,6.4C15,6.4,6.4,15,6.4,25.7S15,45,25.7,45S45,36.4,45,25.7C45,15.1,36.3,6.4,25.7,6.4L25.7,6.4z"/>
		<polygon class="st0" points="25.4,16.5 22.1,31.1 28.2,31.1 29.1,35.7 13.9,35.7 22.3,16.5 		"/>
		<polygon class="st0" points="29.1,16.4 37.4,35.7 30.9,35.7 26.4,16.4 		"/>
		<path class="st0" d="M23.2,12.8c0-1.4,1.1-2.5,2.5-2.5s2.5,1.1,2.5,2.5s-1.1,2.5-2.5,2.5S23.2,14.2,23.2,12.8L23.2,12.8z"/>
	</g>
</g>
</svg>
